<svg width="219" height="264" viewBox="0 0 219 264" fill="none" xmlns="http://www.w3.org/2000/svg">
<path d="M138.881 15.2467C138.881 16.2876 138.57 17.3048 137.986 18.1703C137.402 19.0358 136.572 19.7103 135.601 20.1087C134.63 20.507 133.562 20.6114 132.531 20.4084C131.501 20.2053 130.554 19.7038 129.811 18.9678C129.068 18.2318 128.562 17.294 128.357 16.2731C128.152 15.2522 128.257 14.1943 128.659 13.2326C129.061 12.271 129.742 11.4492 130.616 10.8709C131.49 10.2926 132.517 9.98413 133.568 9.98413C134.977 9.98413 136.329 10.538 137.325 11.525C138.321 12.512 138.881 13.8509 138.881 15.2467Z" fill="url(#paint0_linear_3802_101)"/>
<path d="M126.135 24.943C126.134 26.1248 125.78 27.2798 125.117 28.2622C124.454 29.2447 123.511 30.0102 122.409 30.4622C121.306 30.9141 120.093 31.0321 118.923 30.8012C117.753 30.5703 116.678 30.0008 115.834 29.165C114.991 28.3291 114.416 27.2646 114.184 26.1054C113.951 24.9462 114.07 23.7444 114.527 22.6526C114.984 21.5607 115.757 20.6274 116.75 19.9708C117.742 19.3143 118.908 18.9641 120.101 18.9641C120.894 18.9641 121.679 19.119 122.411 19.4195C123.143 19.72 123.808 20.1602 124.369 20.7154C124.929 21.2706 125.373 21.9297 125.676 22.6551C125.979 23.3804 126.135 24.158 126.135 24.943Z" fill="url(#paint1_linear_3802_101)"/>
<path d="M104.719 1.48241C104.719 1.77553 104.631 2.06204 104.467 2.30576C104.302 2.54949 104.069 2.73941 103.795 2.85159C103.522 2.96376 103.221 2.99308 102.931 2.93589C102.64 2.87871 102.374 2.73764 102.165 2.53037C101.955 2.3231 101.813 2.05851 101.755 1.77101C101.697 1.48352 101.727 1.18586 101.84 0.915043C101.953 0.644231 102.145 0.412689 102.391 0.249837C102.637 0.0869853 102.927 0 103.223 0C103.619 0 104 0.155889 104.281 0.43383C104.561 0.711772 104.719 1.08934 104.719 1.48241Z" fill="url(#paint2_linear_3802_101)"/>
<path d="M136.578 1.48241C136.578 1.77553 136.49 2.06204 136.325 2.30576C136.161 2.54949 135.927 2.73941 135.654 2.85159C135.38 2.96376 135.079 2.99308 134.789 2.93589C134.499 2.87871 134.232 2.73764 134.023 2.53037C133.814 2.3231 133.671 2.05851 133.614 1.77101C133.556 1.48352 133.585 1.18586 133.699 0.915043C133.812 0.644231 134.004 0.412689 134.25 0.249837C134.496 0.0869853 134.785 0 135.081 0C135.478 0 135.859 0.155889 136.139 0.43383C136.42 0.711772 136.578 1.08934 136.578 1.48241Z" fill="url(#paint3_linear_3802_101)"/>
<path d="M109.247 17.6572C109.246 18.2009 109.083 18.732 108.778 19.1839C108.472 19.6358 108.039 19.9878 107.531 20.1955C107.024 20.4033 106.466 20.4576 105.927 20.3512C105.389 20.2448 104.894 19.9827 104.506 19.598C104.118 19.2133 103.854 18.7234 103.747 18.1901C103.64 17.6567 103.696 17.1035 103.906 16.6012C104.116 16.0989 104.472 15.6701 104.928 15.368C105.385 15.066 105.922 14.9047 106.471 14.9047C106.835 14.9047 107.197 14.9755 107.534 15.1139C107.871 15.2522 108.177 15.4552 108.435 15.7108C108.692 15.9664 108.897 16.2698 109.036 16.6037C109.176 16.9376 109.247 17.2958 109.247 17.6572Z" fill="url(#paint4_linear_3802_101)"/>
<path d="M121.654 58.3088C121.654 59.9395 121.166 61.5338 120.251 62.8896C119.336 64.2454 118.036 65.3024 116.515 65.9264C114.995 66.5504 113.321 66.7134 111.706 66.3953C110.092 66.0772 108.608 65.2918 107.444 64.1388C106.28 62.9857 105.487 61.5167 105.166 59.9174C104.845 58.3181 105.01 56.6604 105.64 55.1539C106.27 53.6474 107.337 52.3596 108.706 51.4537C110.074 50.5478 111.684 50.0642 113.33 50.0642C115.538 50.0642 117.655 50.9333 119.216 52.4795C120.777 54.0257 121.654 56.1222 121.654 58.3088Z" fill="url(#paint5_linear_3802_101)"/>
<path d="M81.3489 58.3088C81.3489 59.9395 80.8607 61.5338 79.9461 62.8896C79.0315 64.2454 77.7314 65.3024 76.2105 65.9264C74.6895 66.5504 73.0158 66.7134 71.4012 66.3953C69.7865 66.0772 68.3033 65.2918 67.1392 64.1388C65.9751 62.9857 65.1824 61.5167 64.8612 59.9174C64.54 58.3181 64.7048 56.6604 65.3348 55.1539C65.9648 53.6474 67.0317 52.3596 68.4006 51.4537C69.7694 50.5478 71.3787 50.0642 73.025 50.0642C75.2326 50.0642 77.3499 50.9333 78.9109 52.4795C80.4719 54.0257 81.3489 56.1222 81.3489 58.3088Z" fill="url(#paint6_linear_3802_101)"/>
<path d="M64.2921 86.1074C64.2921 87.738 63.8039 89.3323 62.8893 90.6882C61.9746 92.044 60.6746 93.1003 59.1536 93.7244C57.6326 94.3484 55.959 94.512 54.3444 94.1939C52.7297 93.8758 51.2465 93.0904 50.0824 91.9374C48.9183 90.7843 48.1255 89.3153 47.8044 87.716C47.4832 86.1167 47.648 84.459 48.278 82.9525C48.908 81.4459 49.9749 80.1582 51.3438 79.2523C52.7126 78.3463 54.3219 77.8628 55.9682 77.8628C58.1758 77.8628 60.293 78.7313 61.8541 80.2775C63.4151 81.8236 64.2921 83.9208 64.2921 86.1074Z" fill="url(#paint7_linear_3802_101)"/>
<path d="M41.8938 73.3328C41.8938 75.3318 41.2953 77.2864 40.174 78.9486C39.0528 80.6107 37.459 81.9059 35.5944 82.6709C33.7298 83.4359 31.678 83.6363 29.6986 83.2463C27.7191 82.8563 25.9009 81.8937 24.4738 80.4802C23.0466 79.0667 22.0748 77.2656 21.6811 75.305C21.2873 73.3444 21.4894 71.3121 22.2618 69.4652C23.0341 67.6184 24.342 66.0394 26.0201 64.9288C27.6982 63.8182 29.6711 63.2255 31.6894 63.2255C33.0295 63.2251 34.3567 63.4868 35.5949 63.9947C36.8331 64.5025 37.9581 65.2467 38.9057 66.1854C39.8533 67.124 40.605 68.2382 41.1177 69.4646C41.6304 70.691 41.8941 72.0054 41.8938 73.3328Z" fill="url(#paint8_linear_3802_101)"/>
<path d="M62.0077 63.2141C62.0077 64.3959 61.654 65.5512 60.9911 66.5339C60.3282 67.5167 59.386 68.2827 58.2837 68.7351C57.1813 69.1875 55.9684 69.3064 54.798 69.076C53.6277 68.8456 52.5526 68.2765 51.7087 67.441C50.8648 66.6055 50.2899 65.5411 50.0569 64.382C49.8238 63.2229 49.9429 62.0213 50.3992 60.9292C50.8555 59.8372 51.6283 58.9038 52.6202 58.2469C53.6121 57.5899 54.7784 57.2388 55.9716 57.2383C57.572 57.2383 59.107 57.8677 60.2389 58.9884C61.3708 60.109 62.0071 61.6289 62.0077 63.2141Z" fill="url(#paint9_linear_3802_101)"/>
<path d="M111.807 43.1471C111.807 44.0783 111.528 44.9887 111.006 45.763C110.484 46.5373 109.741 47.1407 108.873 47.4971C108.004 47.8535 107.048 47.9464 106.126 47.7648C105.204 47.5831 104.357 47.1347 103.692 46.4762C103.028 45.8177 102.575 44.9792 102.391 44.0658C102.208 43.1525 102.302 42.2057 102.662 41.3453C103.022 40.485 103.631 39.7495 104.413 39.2322C105.194 38.7148 106.113 38.439 107.054 38.439C108.314 38.439 109.523 38.935 110.415 39.818C111.306 40.701 111.807 41.8984 111.807 43.1471Z" fill="url(#paint10_linear_3802_101)"/>
<path d="M92.6165 57.2401C92.6165 57.9784 92.3955 58.7 91.9814 59.3139C91.5672 59.9278 90.9787 60.4067 90.29 60.6892C89.6014 60.9717 88.8436 61.0455 88.1125 60.9015C87.3815 60.7575 86.7099 60.4021 86.1829 59.88C85.6558 59.358 85.2969 58.6928 85.1515 57.9687C85.0061 57.2446 85.0806 56.494 85.3659 55.8119C85.6511 55.1298 86.1342 54.5464 86.754 54.1362C87.3737 53.726 88.1023 53.5073 88.8477 53.5073C89.3427 53.507 89.833 53.6035 90.2904 53.791C90.7478 53.9785 91.1634 54.2535 91.5135 54.6002C91.8635 54.9469 92.1411 55.3582 92.3304 55.8112C92.5196 56.2643 92.6169 56.7498 92.6165 57.2401Z" fill="url(#paint11_linear_3802_101)"/>
<path d="M76.79 73.3348C76.79 74.0731 76.5689 74.7947 76.1548 75.4086C75.7407 76.0225 75.1521 76.5008 74.4635 76.7833C73.7748 77.0659 73.0171 77.1397 72.286 76.9956C71.5549 76.8516 70.8834 76.4962 70.3563 75.9741C69.8293 75.4521 69.4703 74.7869 69.3249 74.0628C69.1794 73.3387 69.2541 72.5881 69.5393 71.906C69.8246 71.2239 70.3077 70.6411 70.9274 70.231C71.5472 69.8208 72.2758 69.6014 73.0212 69.6014C74.0207 69.6014 74.9794 69.9949 75.6861 70.6949C76.3929 71.395 76.79 72.3448 76.79 73.3348Z" fill="url(#paint12_linear_3802_101)"/>
<path d="M101.785 70.5887C101.785 71.1326 101.622 71.6644 101.317 72.1166C101.012 72.5688 100.578 72.9214 100.071 73.1295C99.5635 73.3376 99.0052 73.3919 98.4666 73.2858C97.9281 73.1797 97.4334 72.9178 97.0452 72.5332C96.6569 72.1486 96.3925 71.6587 96.2853 71.1253C96.1782 70.5918 96.2332 70.0389 96.4433 69.5364C96.6534 69.0339 97.0094 68.6042 97.4659 68.302C97.9225 67.9998 98.4591 67.8386 99.0082 67.8386C99.7446 67.8386 100.451 68.1284 100.971 68.6441C101.492 69.1598 101.785 69.8594 101.785 70.5887Z" fill="url(#paint13_linear_3802_101)"/>
<path d="M131.716 42.8287C131.716 43.3725 131.553 43.9038 131.248 44.356C130.943 44.8082 130.509 45.1607 130.002 45.3689C129.495 45.577 128.936 45.6319 128.398 45.5258C127.859 45.4197 127.365 45.1578 126.976 44.7732C126.588 44.3886 126.324 43.8981 126.217 43.3646C126.109 42.8312 126.164 42.2789 126.375 41.7764C126.585 41.2739 126.94 40.8441 127.397 40.542C127.854 40.2398 128.39 40.0786 128.94 40.0786C129.304 40.0786 129.665 40.1496 130.002 40.2878C130.339 40.426 130.645 40.6288 130.903 40.8841C131.161 41.1395 131.365 41.4428 131.504 41.7764C131.644 42.11 131.716 42.4675 131.716 42.8287Z" fill="url(#paint14_linear_3802_101)"/>
<path d="M66.8507 33.8918C66.8507 34.4357 66.6879 34.9669 66.3828 35.4191C66.0778 35.8713 65.6442 36.2239 65.1369 36.432C64.6296 36.6401 64.0713 36.695 63.5327 36.5889C62.9942 36.4828 62.4995 36.2209 62.1113 35.8363C61.723 35.4517 61.4586 34.9618 61.3515 34.4284C61.2443 33.8949 61.2993 33.342 61.5094 32.8395C61.7195 32.337 62.0754 31.9073 62.5319 31.6051C62.9885 31.3029 63.5253 31.1417 64.0744 31.1417C64.8107 31.1417 65.5169 31.4315 66.0376 31.9472C66.5582 32.4629 66.8507 33.1625 66.8507 33.8918Z" fill="url(#paint15_linear_3802_101)"/>
<path d="M128.969 63.2271C128.969 63.771 128.806 64.3028 128.501 64.755C128.196 65.2073 127.762 65.5598 127.255 65.7679C126.748 65.9761 126.189 66.0303 125.651 65.9242C125.112 65.8181 124.618 65.5562 124.229 65.1716C123.841 64.7871 123.577 64.2971 123.47 63.7637C123.362 63.2303 123.417 62.6773 123.628 62.1748C123.838 61.6724 124.193 61.2432 124.65 60.941C125.107 60.6389 125.643 60.4777 126.192 60.4777C126.929 60.4777 127.635 60.7675 128.156 61.2832C128.676 61.7989 128.969 62.4978 128.969 63.2271Z" fill="url(#paint16_linear_3802_101)"/>
<path d="M50.45 73.3374C50.4495 73.8811 50.2862 74.4122 49.9809 74.8641C49.6755 75.316 49.2417 75.668 48.7343 75.8757C48.227 76.0835 47.6689 76.1378 47.1305 76.0314C46.5921 75.925 46.0977 75.6629 45.7097 75.2782C45.3217 74.8935 45.0575 74.4036 44.9506 73.8703C44.8436 73.3369 44.8988 72.7843 45.109 72.282C45.3192 71.7797 45.675 71.3503 46.1315 71.0482C46.588 70.7462 47.1247 70.5848 47.6737 70.5848C48.0385 70.5848 48.3998 70.6557 48.7368 70.7941C49.0738 70.9324 49.3799 71.1353 49.6378 71.391C49.8956 71.6466 50.1 71.9499 50.2394 72.2839C50.3788 72.6178 50.4503 72.976 50.45 73.3374Z" fill="url(#paint17_linear_3802_101)"/>
<path d="M88.8508 66.5525C88.8508 66.8457 88.763 67.1321 88.5985 67.3758C88.434 67.6196 88.2001 67.8096 87.9265 67.9217C87.653 68.0338 87.352 68.0634 87.0617 68.006C86.7714 67.9486 86.5048 67.8067 86.2956 67.5992C86.0864 67.3917 85.9441 67.1275 85.8867 66.8399C85.8292 66.5522 85.8592 66.254 85.9729 65.9833C86.0865 65.7125 86.2787 65.4812 86.5251 65.3187C86.7715 65.1561 87.061 65.0696 87.3571 65.0701C87.7535 65.0707 88.1334 65.2273 88.4135 65.5051C88.6935 65.783 88.8508 66.1598 88.8508 66.5525Z" fill="url(#paint18_linear_3802_101)"/>
<path d="M70.728 43.1413C70.728 43.4346 70.6402 43.7209 70.4756 43.9647C70.3111 44.2085 70.0772 44.3984 69.8037 44.5105C69.5301 44.6226 69.2292 44.6516 68.9389 44.5942C68.6485 44.5368 68.3819 44.3956 68.1727 44.1881C67.9636 43.9806 67.8212 43.7164 67.7638 43.4287C67.7063 43.1411 67.7364 42.8429 67.85 42.5721C67.9636 42.3014 68.1558 42.0701 68.4022 41.9075C68.6486 41.745 68.9381 41.6584 69.2342 41.6589C69.6306 41.6596 70.0105 41.8161 70.2906 42.094C70.5706 42.3719 70.728 42.7487 70.728 43.1413Z" fill="url(#paint19_linear_3802_101)"/>
<path d="M42.2727 57.8229C42.2722 58.116 42.1839 58.4022 42.019 58.6456C41.8542 58.8891 41.6202 59.0785 41.3466 59.1902C41.073 59.3019 40.7721 59.331 40.4819 59.2733C40.1918 59.2156 39.9254 59.0742 39.7165 58.8665C39.5076 58.6589 39.3655 58.3948 39.3083 58.1072C39.251 57.8196 39.2812 57.5212 39.3949 57.2506C39.5087 56.98 39.7008 56.7491 39.9472 56.5866C40.1935 56.4242 40.483 56.3375 40.7789 56.338C40.9754 56.3383 41.1699 56.3771 41.3513 56.4519C41.5327 56.5266 41.6974 56.6364 41.8362 56.7743C41.9749 56.9122 42.0848 57.0756 42.1597 57.2555C42.2346 57.4355 42.273 57.6283 42.2727 57.8229Z" fill="url(#paint20_linear_3802_101)"/>
<path d="M88.8641 37.158C88.8641 38.34 88.5103 39.4951 87.8473 40.4779C87.1843 41.4607 86.242 42.2267 85.1395 42.6791C84.037 43.1314 82.8238 43.25 81.6534 43.0194C80.483 42.7888 79.408 42.2195 78.5641 41.3837C77.7203 40.5479 77.1457 39.4828 76.9129 38.3235C76.6801 37.1643 76.7995 35.9627 77.2562 34.8707C77.7129 33.7787 78.4862 32.8457 79.4784 32.189C80.4706 31.5323 81.6372 31.1816 82.8305 31.1816C84.4307 31.1816 85.9654 31.811 87.0969 32.9317C88.2284 34.0525 88.8641 35.5731 88.8641 37.158Z" fill="url(#paint21_linear_3802_101)"/>
<path d="M99.5053 28.6824C99.5053 29.4207 99.2842 30.1423 98.8701 30.7561C98.456 31.37 97.8674 31.8483 97.1788 32.1309C96.4901 32.4134 95.7323 32.4878 95.0013 32.3438C94.2702 32.1997 93.5987 31.8437 93.0716 31.3217C92.5445 30.7996 92.1855 30.1345 92.0401 29.4103C91.8947 28.6862 91.9694 27.9362 92.2546 27.2541C92.5399 26.572 93.0229 25.9887 93.6427 25.5785C94.2625 25.1683 94.9911 24.9496 95.7365 24.9496C96.736 24.9496 97.6946 25.343 98.4014 26.0431C99.1082 26.7431 99.5053 27.6923 99.5053 28.6824Z" fill="url(#paint22_linear_3802_101)"/>
<path d="M110.049 32.397C110.049 32.6901 109.961 32.9766 109.797 33.2203C109.632 33.464 109.399 33.654 109.125 33.7661C108.852 33.8783 108.551 33.9076 108.261 33.8504C107.97 33.7933 107.704 33.6522 107.494 33.4449C107.285 33.2376 107.143 32.9731 107.085 32.6856C107.027 32.3981 107.057 32.1004 107.17 31.8296C107.283 31.5588 107.475 31.3272 107.721 31.1644C107.967 31.0015 108.257 30.9146 108.552 30.9146C108.949 30.9146 109.33 31.0711 109.611 31.349C109.891 31.6269 110.049 32.0039 110.049 32.397Z" fill="url(#paint23_linear_3802_101)"/>
<path d="M140.391 25.8998C140.391 26.193 140.303 26.48 140.138 26.7237C139.974 26.9675 139.74 27.1575 139.466 27.2696C139.193 27.3817 138.892 27.4106 138.601 27.3532C138.311 27.2959 138.045 27.1546 137.835 26.9471C137.626 26.7396 137.484 26.4754 137.426 26.1878C137.369 25.9001 137.399 25.6019 137.513 25.3312C137.626 25.0604 137.818 24.8291 138.065 24.6666C138.311 24.504 138.601 24.4175 138.897 24.418C139.093 24.418 139.288 24.4561 139.469 24.5306C139.65 24.6051 139.815 24.7141 139.954 24.8518C140.093 24.9895 140.203 25.1532 140.278 25.333C140.353 25.5128 140.391 25.7053 140.391 25.8998Z" fill="url(#paint24_linear_3802_101)"/>
<path d="M121.571 44.1009C121.571 44.3941 121.484 44.6814 121.32 44.9255C121.156 45.1696 120.922 45.3594 120.649 45.4719C120.375 45.5845 120.074 45.6144 119.784 45.5575C119.494 45.5006 119.227 45.3597 119.017 45.1526C118.808 44.9454 118.665 44.6814 118.607 44.3938C118.549 44.1063 118.579 43.8082 118.692 43.5372C118.805 43.2663 118.997 43.0344 119.243 42.8714C119.489 42.7085 119.778 42.6216 120.074 42.6216C120.471 42.6216 120.851 42.7774 121.132 43.0548C121.412 43.3322 121.57 43.7083 121.571 44.1009Z" fill="url(#paint25_linear_3802_101)"/>
<path d="M64.0855 74.609C64.0855 74.9021 63.9978 75.1886 63.8333 75.4323C63.6689 75.6761 63.4352 75.866 63.1618 75.9782C62.8884 76.0903 62.5876 76.1197 62.2973 76.0625C62.0071 76.0053 61.7404 75.8642 61.5311 75.657C61.3219 75.4497 61.1794 75.1857 61.1216 74.8982C61.0639 74.6107 61.0936 74.3124 61.2068 74.0416C61.3201 73.7708 61.5118 73.5393 61.7579 73.3764C62.004 73.2136 62.2932 73.1266 62.5892 73.1266C62.986 73.1266 63.3667 73.2831 63.6473 73.561C63.9279 73.839 64.0855 74.2159 64.0855 74.609Z" fill="url(#paint26_linear_3802_101)"/>
<path d="M117.102 73.1326C117.102 73.4257 117.014 73.7122 116.849 73.9559C116.685 74.1996 116.451 74.3896 116.178 74.5017C115.904 74.6139 115.604 74.6432 115.313 74.586C115.023 74.5289 114.756 74.3878 114.547 74.1805C114.338 73.9732 114.195 73.7087 114.138 73.4212C114.08 73.1337 114.11 72.836 114.223 72.5652C114.336 72.2944 114.528 72.0628 114.774 71.9C115.02 71.7371 115.309 71.6501 115.605 71.6501C116.002 71.6501 116.383 71.806 116.663 72.084C116.944 72.3619 117.102 72.7395 117.102 73.1326Z" fill="url(#paint27_linear_3802_101)"/>
<path d="M72.2451 84.6142C72.2451 84.9074 72.1573 85.1939 71.9929 85.4376C71.8285 85.6813 71.5948 85.8712 71.3214 85.9834C71.048 86.0956 70.7471 86.1249 70.4568 86.0677C70.1666 86.0105 69.9 85.8695 69.6907 85.6622C69.4814 85.4549 69.3389 85.191 69.2812 84.9035C69.2235 84.616 69.2531 84.3177 69.3663 84.0469C69.4796 83.7761 69.6714 83.5451 69.9175 83.3823C70.1635 83.2194 70.4528 83.1324 70.7487 83.1324C70.9452 83.1324 71.1398 83.1706 71.3214 83.2451C71.5029 83.3195 71.6678 83.4287 71.8068 83.5663C71.9457 83.7039 72.0559 83.8671 72.1311 84.0469C72.2063 84.2267 72.2451 84.4196 72.2451 84.6142Z" fill="url(#paint28_linear_3802_101)"/>
<path d="M131.944 33.8943C131.944 34.1875 131.856 34.4738 131.692 34.7176C131.527 34.9614 131.293 35.1514 131.02 35.2635C130.746 35.3756 130.445 35.4051 130.155 35.3478C129.865 35.2904 129.598 35.1485 129.389 34.941C129.18 34.7335 129.037 34.4693 128.98 34.1816C128.922 33.894 128.952 33.5958 129.066 33.3251C129.18 33.0543 129.372 32.823 129.618 32.6605C129.865 32.4979 130.154 32.4114 130.45 32.4119C130.847 32.4125 131.227 32.5691 131.507 32.8469C131.787 33.1248 131.944 33.5016 131.944 33.8943Z" fill="url(#paint29_linear_3802_101)"/>
<path d="M95.6162 45.5802C95.6162 45.8733 95.5285 46.1598 95.3641 46.4035C95.1996 46.6473 94.966 46.8372 94.6925 46.9494C94.4191 47.0615 94.1182 47.0909 93.828 47.0337C93.5377 46.9765 93.2711 46.8354 93.0619 46.6281C92.8526 46.4209 92.7101 46.1569 92.6524 45.8694C92.5946 45.5819 92.6242 45.2836 92.7375 45.0128C92.8507 44.742 93.0426 44.5105 93.2886 44.3476C93.5347 44.1848 93.8239 44.0978 94.1199 44.0978C94.3164 44.0978 94.511 44.1365 94.6925 44.211C94.8741 44.2855 95.039 44.3946 95.178 44.5322C95.3169 44.6698 95.4271 44.833 95.5023 45.0128C95.5775 45.1926 95.6162 45.3856 95.6162 45.5802Z" fill="url(#paint30_linear_3802_101)"/>
<path d="M139.403 50.9178C138.992 50.7361 138.557 50.6115 138.111 50.5473C138.024 50.5247 137.943 50.4968 137.856 50.4741L137.871 50.5221C137.708 50.4971 137.543 50.481 137.378 50.4741C136.076 50.4741 134.829 50.9861 133.908 51.8975C132.988 52.8088 132.471 54.0448 132.471 55.3336C132.471 56.6225 132.988 57.8585 133.908 58.7698C134.829 59.6812 136.076 60.1931 137.378 60.1931C137.988 60.1909 138.592 60.0746 139.159 59.8504C139.076 61.1771 138.883 62.4947 138.581 63.7899C138.229 63.6583 137.853 63.5978 137.477 63.6121C137.1 63.6264 136.731 63.7155 136.39 63.8736C136.048 64.0317 135.742 64.2557 135.49 64.5327C135.238 64.8097 135.044 65.1341 134.92 65.4865C134.796 65.8389 134.745 66.2126 134.769 66.5849C134.793 66.9573 134.892 67.3206 135.061 67.6544C135.229 67.9882 135.463 68.2855 135.749 68.5282C136.035 68.771 136.367 68.9543 136.726 69.0679C136.37 69.8173 135.98 70.557 135.556 71.2863C135.391 71.1595 135.202 71.0685 135 71.0186C134.798 70.9687 134.588 70.961 134.383 70.9964C134.178 71.0319 133.982 71.1094 133.809 71.2241C133.636 71.3389 133.49 71.4879 133.378 71.6623C133.267 71.8366 133.194 72.0324 133.164 72.2364C133.133 72.4404 133.147 72.6482 133.202 72.8468C133.258 73.0455 133.355 73.2303 133.487 73.3896C133.62 73.5488 133.784 73.6792 133.97 73.7717H133.996C134.119 73.8314 134.25 73.8726 134.385 73.8948C152.164 79.2153 167.722 90.1033 178.724 104.924C189.726 119.746 195.579 137.701 195.405 156.096C195.23 174.491 189.038 192.335 177.757 206.949C166.476 221.563 150.715 232.159 132.838 237.148C114.961 242.138 95.933 241.25 78.6086 234.619C61.2841 227.989 46.5978 215.972 36.7531 200.373C26.9084 184.773 22.4363 166.433 24.0079 148.103C25.5795 129.772 33.11 112.441 45.4694 98.7093C45.7857 98.4543 46.0575 98.1497 46.2736 97.8072C46.3321 97.7441 46.383 97.6763 46.444 97.6133H46.383C46.6537 97.1142 46.8059 96.5604 46.828 95.9943C46.8502 95.4282 46.7417 94.8647 46.5108 94.3464C46.2798 93.828 45.9326 93.3684 45.4954 93.003C45.0583 92.6376 44.5428 92.3759 43.9881 92.2375C43.4334 92.0992 42.8542 92.0881 42.2945 92.2049C41.7348 92.3217 41.2093 92.5631 40.7581 92.9113C40.3069 93.2595 39.9418 93.705 39.6907 94.2141C39.4395 94.7231 39.3088 95.2819 39.3086 95.8485C39.3086 95.9543 39.3341 96.0553 39.3417 96.1561C38.6292 95.9873 37.9243 95.8085 37.2245 95.6245C37.1823 95.0702 36.9703 94.5419 36.6171 94.1101C36.2638 93.6782 35.7859 93.3632 35.2472 93.2073C34.7086 93.0515 34.1347 93.0619 33.6023 93.2375C33.0699 93.4131 32.6041 93.7454 32.2673 94.1901C31.0034 93.7901 29.7625 93.37 28.5444 92.9298C28.5444 92.8239 28.5775 92.7206 28.5775 92.6147C28.5814 91.8478 28.3457 91.0986 27.9028 90.4696C27.4598 89.8405 26.8314 89.3624 26.1034 89.101C25.3755 88.8396 24.5837 88.8076 23.8367 89.0093C23.0897 89.2111 22.4239 89.6365 21.9306 90.2277L21.8797 90.2056C7.86385 108.728 0.198226 131.205 0.00379221 154.351C-0.190642 177.497 7.09632 200.098 20.7991 218.848C34.5019 237.599 53.9016 251.515 76.1616 258.562C98.4215 265.61 122.374 265.419 144.516 258.017C166.658 250.615 185.829 236.39 199.225 217.423C212.62 198.456 219.539 175.742 218.967 152.602C218.396 129.462 210.365 107.11 196.05 88.8143C181.734 70.5186 161.884 57.239 139.403 50.9178Z" fill="url(#paint31_linear_3802_101)"/>
<path d="M82.3208 192.319C82.3208 189.496 82.9799 175.82 82.9799 161.168V133.057C79.7913 136.747 71.3224 144.78 68.1338 148.034L63.1844 142.173C65.2736 140.328 89.7998 117.752 92.9883 114.171H93.3191C93.3191 117.752 92.4387 132.187 92.4387 146.839V163.555C92.4387 179.182 92.3292 188.952 92.6575 192.317L82.3208 192.319Z" fill="url(#paint32_linear_3802_101)"/>
<path d="M135.787 121.023C126.554 126.955 119.017 135.14 113.902 144.792C132.27 144.142 146.236 153.909 146.236 167.585C146.185 174.535 143.399 181.191 138.47 186.137C133.54 191.083 126.857 193.929 119.842 194.068C116.978 194.211 114.117 193.753 111.444 192.725C108.772 191.696 106.349 190.12 104.334 188.1C99.9342 183.543 97.6262 177.571 97.6262 168.888C97.6262 147.398 115.114 123.955 130.072 113.535L135.787 121.023ZM120.61 186.146C129.738 186.146 135.899 178.441 135.899 169.763C135.899 157.715 123.361 151.421 110.492 152.288C108.343 157.329 107.329 162.774 107.523 168.243C107.523 179.308 113.022 186.146 120.61 186.146Z" fill="url(#paint33_linear_3802_101)"/>
<defs>
<linearGradient id="paint0_linear_3802_101" x1="133.568" y1="20.5094" x2="133.568" y2="9.98413" gradientUnits="userSpaceOnUse">
<stop stop-color="#087BBA"/>
<stop offset="1" stop-color="#089FE8"/>
</linearGradient>
<linearGradient id="paint1_linear_3802_101" x1="120.101" y1="30.9164" x2="120.101" y2="18.9641" gradientUnits="userSpaceOnUse">
<stop stop-color="#087BBA"/>
<stop offset="1" stop-color="#089FE8"/>
</linearGradient>
<linearGradient id="paint2_linear_3802_101" x1="103.223" y1="2.96438" x2="103.223" y2="0" gradientUnits="userSpaceOnUse">
<stop stop-color="#087BBA"/>
<stop offset="1" stop-color="#089FE8"/>
</linearGradient>
<linearGradient id="paint3_linear_3802_101" x1="135.081" y1="2.96438" x2="135.081" y2="0" gradientUnits="userSpaceOnUse">
<stop stop-color="#087BBA"/>
<stop offset="1" stop-color="#089FE8"/>
</linearGradient>
<linearGradient id="paint4_linear_3802_101" x1="106.47" y1="20.4043" x2="106.47" y2="14.9047" gradientUnits="userSpaceOnUse">
<stop stop-color="#087BBA"/>
<stop offset="1" stop-color="#089FE8"/>
</linearGradient>
<linearGradient id="paint5_linear_3802_101" x1="113.33" y1="66.5538" x2="113.33" y2="50.0642" gradientUnits="userSpaceOnUse">
<stop stop-color="#087BBA"/>
<stop offset="1" stop-color="#089FE8"/>
</linearGradient>
<linearGradient id="paint6_linear_3802_101" x1="73.0251" y1="66.5538" x2="73.0251" y2="50.0642" gradientUnits="userSpaceOnUse">
<stop stop-color="#087BBA"/>
<stop offset="1" stop-color="#089FE8"/>
</linearGradient>
<linearGradient id="paint7_linear_3802_101" x1="55.9683" y1="94.3522" x2="55.9683" y2="77.8628" gradientUnits="userSpaceOnUse">
<stop stop-color="#087BBA"/>
<stop offset="1" stop-color="#089FE8"/>
</linearGradient>
<linearGradient id="paint8_linear_3802_101" x1="31.6894" y1="83.4404" x2="31.6894" y2="63.2255" gradientUnits="userSpaceOnUse">
<stop stop-color="#087BBA"/>
<stop offset="1" stop-color="#089FE8"/>
</linearGradient>
<linearGradient id="paint9_linear_3802_101" x1="55.9742" y1="69.1905" x2="55.9742" y2="57.2383" gradientUnits="userSpaceOnUse">
<stop stop-color="#087BBA"/>
<stop offset="1" stop-color="#089FE8"/>
</linearGradient>
<linearGradient id="paint10_linear_3802_101" x1="107.054" y1="47.8553" x2="107.054" y2="38.439" gradientUnits="userSpaceOnUse">
<stop stop-color="#087BBA"/>
<stop offset="1" stop-color="#089FE8"/>
</linearGradient>
<linearGradient id="paint11_linear_3802_101" x1="88.8478" y1="60.9733" x2="88.8478" y2="53.5073" gradientUnits="userSpaceOnUse">
<stop stop-color="#087BBA"/>
<stop offset="1" stop-color="#089FE8"/>
</linearGradient>
<linearGradient id="paint12_linear_3802_101" x1="73.0212" y1="77.0674" x2="73.0212" y2="69.6014" gradientUnits="userSpaceOnUse">
<stop stop-color="#087BBA"/>
<stop offset="1" stop-color="#089FE8"/>
</linearGradient>
<linearGradient id="paint13_linear_3802_101" x1="99.0083" y1="73.3387" x2="99.0083" y2="67.8386" gradientUnits="userSpaceOnUse">
<stop stop-color="#087BBA"/>
<stop offset="1" stop-color="#089FE8"/>
</linearGradient>
<linearGradient id="paint14_linear_3802_101" x1="128.94" y1="45.5785" x2="128.94" y2="40.0786" gradientUnits="userSpaceOnUse">
<stop stop-color="#087BBA"/>
<stop offset="1" stop-color="#089FE8"/>
</linearGradient>
<linearGradient id="paint15_linear_3802_101" x1="64.0744" y1="36.6416" x2="64.0744" y2="31.1417" gradientUnits="userSpaceOnUse">
<stop stop-color="#087BBA"/>
<stop offset="1" stop-color="#089FE8"/>
</linearGradient>
<linearGradient id="paint16_linear_3802_101" x1="126.192" y1="65.9771" x2="126.192" y2="60.4777" gradientUnits="userSpaceOnUse">
<stop stop-color="#087BBA"/>
<stop offset="1" stop-color="#089FE8"/>
</linearGradient>
<linearGradient id="paint17_linear_3802_101" x1="47.6737" y1="76.0845" x2="47.6737" y2="70.5848" gradientUnits="userSpaceOnUse">
<stop stop-color="#087BBA"/>
<stop offset="1" stop-color="#089FE8"/>
</linearGradient>
<linearGradient id="paint18_linear_3802_101" x1="87.3545" y1="68.0345" x2="87.3545" y2="65.0701" gradientUnits="userSpaceOnUse">
<stop stop-color="#087BBA"/>
<stop offset="1" stop-color="#089FE8"/>
</linearGradient>
<linearGradient id="paint19_linear_3802_101" x1="69.2317" y1="44.6229" x2="69.2317" y2="41.6589" gradientUnits="userSpaceOnUse">
<stop stop-color="#087BBA"/>
<stop offset="1" stop-color="#089FE8"/>
</linearGradient>
<linearGradient id="paint20_linear_3802_101" x1="40.7764" y1="59.3022" x2="40.7764" y2="56.338" gradientUnits="userSpaceOnUse">
<stop stop-color="#087BBA"/>
<stop offset="1" stop-color="#089FE8"/>
</linearGradient>
<linearGradient id="paint21_linear_3802_101" x1="82.8305" y1="43.1341" x2="82.8305" y2="31.1816" gradientUnits="userSpaceOnUse">
<stop stop-color="#087BBA"/>
<stop offset="1" stop-color="#089FE8"/>
</linearGradient>
<linearGradient id="paint22_linear_3802_101" x1="95.7365" y1="32.4154" x2="95.7365" y2="24.9496" gradientUnits="userSpaceOnUse">
<stop stop-color="#087BBA"/>
<stop offset="1" stop-color="#089FE8"/>
</linearGradient>
<linearGradient id="paint23_linear_3802_101" x1="108.553" y1="33.8789" x2="108.553" y2="30.9146" gradientUnits="userSpaceOnUse">
<stop stop-color="#087BBA"/>
<stop offset="1" stop-color="#089FE8"/>
</linearGradient>
<linearGradient id="paint24_linear_3802_101" x1="138.894" y1="27.382" x2="138.894" y2="24.418" gradientUnits="userSpaceOnUse">
<stop stop-color="#087BBA"/>
<stop offset="1" stop-color="#089FE8"/>
</linearGradient>
<linearGradient id="paint25_linear_3802_101" x1="120.074" y1="45.5856" x2="120.074" y2="42.6216" gradientUnits="userSpaceOnUse">
<stop stop-color="#087BBA"/>
<stop offset="1" stop-color="#089FE8"/>
</linearGradient>
<linearGradient id="paint26_linear_3802_101" x1="62.5892" y1="76.091" x2="62.5892" y2="73.1266" gradientUnits="userSpaceOnUse">
<stop stop-color="#087BBA"/>
<stop offset="1" stop-color="#089FE8"/>
</linearGradient>
<linearGradient id="paint27_linear_3802_101" x1="115.605" y1="74.6145" x2="115.605" y2="71.6501" gradientUnits="userSpaceOnUse">
<stop stop-color="#087BBA"/>
<stop offset="1" stop-color="#089FE8"/>
</linearGradient>
<linearGradient id="paint28_linear_3802_101" x1="70.7488" y1="86.0962" x2="70.7488" y2="83.1324" gradientUnits="userSpaceOnUse">
<stop stop-color="#087BBA"/>
<stop offset="1" stop-color="#089FE8"/>
</linearGradient>
<linearGradient id="paint29_linear_3802_101" x1="130.448" y1="35.3763" x2="130.448" y2="32.4119" gradientUnits="userSpaceOnUse">
<stop stop-color="#087BBA"/>
<stop offset="1" stop-color="#089FE8"/>
</linearGradient>
<linearGradient id="paint30_linear_3802_101" x1="94.1199" y1="47.0622" x2="94.1199" y2="44.0978" gradientUnits="userSpaceOnUse">
<stop stop-color="#087BBA"/>
<stop offset="1" stop-color="#089FE8"/>
</linearGradient>
<linearGradient id="paint31_linear_3802_101" x1="109.5" y1="263.712" x2="109.5" y2="50.4741" gradientUnits="userSpaceOnUse">
<stop stop-color="#087BBA"/>
<stop offset="1" stop-color="#089FE8"/>
</linearGradient>
<linearGradient id="paint32_linear_3802_101" x1="78.2517" y1="192.319" x2="78.2517" y2="114.171" gradientUnits="userSpaceOnUse">
<stop stop-color="#087BBA"/>
<stop offset="1" stop-color="#089FE8"/>
</linearGradient>
<linearGradient id="paint33_linear_3802_101" x1="121.931" y1="194.094" x2="121.931" y2="113.535" gradientUnits="userSpaceOnUse">
<stop stop-color="#087BBA"/>
<stop offset="1" stop-color="#089FE8"/>
</linearGradient>
</defs>
</svg>
