<svg width="71" height="85" viewBox="0 0 71 85" fill="none" xmlns="http://www.w3.org/2000/svg">
<path d="M44.7643 4.91447C44.7643 5.24997 44.6639 5.57784 44.4757 5.8568C44.2875 6.13576 44.02 6.35319 43.7071 6.48158C43.3942 6.60998 43.0498 6.64363 42.7176 6.57818C42.3854 6.51272 42.0802 6.35109 41.8407 6.11385C41.6012 5.87662 41.4381 5.57436 41.372 5.24531C41.3059 4.91625 41.3398 4.57525 41.4695 4.26529C41.5991 3.95533 41.8186 3.69044 42.1002 3.50404C42.3818 3.31765 42.713 3.21823 43.0517 3.21823C43.5059 3.21823 43.9415 3.39676 44.2627 3.71488C44.5839 4.03301 44.7643 4.46457 44.7643 4.91447Z" fill="url(#paint0_linear_3802_57)"/>
<path d="M40.6559 8.03965C40.6558 8.42059 40.5416 8.79285 40.3278 9.10952C40.114 9.42618 39.8102 9.67293 39.4548 9.8186C39.0995 9.96426 38.7085 10.0023 38.3313 9.92788C37.9541 9.85347 37.6076 9.66991 37.3357 9.40049C37.0638 9.13106 36.8787 8.78795 36.8037 8.41432C36.7288 8.04069 36.7673 7.65334 36.9145 7.30141C37.0617 6.94949 37.311 6.64865 37.6308 6.43703C37.9506 6.22541 38.3265 6.11254 38.7111 6.11254C38.9666 6.11254 39.2196 6.16246 39.4556 6.25931C39.6916 6.35617 39.906 6.49807 40.0866 6.67703C40.2672 6.85598 40.4104 7.06841 40.5081 7.30221C40.6058 7.536 40.656 7.78662 40.6559 8.03965Z" fill="url(#paint1_linear_3802_57)"/>
<path d="M33.7531 0.477811C33.7531 0.572291 33.7248 0.664637 33.6718 0.743195C33.6188 0.821752 33.5435 0.88297 33.4553 0.919126C33.3672 0.955282 33.2702 0.964731 33.1766 0.946299C33.0831 0.927867 32.9972 0.882398 32.9297 0.81559C32.8623 0.748783 32.8163 0.663499 32.7977 0.570834C32.7791 0.478169 32.7886 0.382226 32.8252 0.294937C32.8617 0.207649 32.9235 0.133018 33.0028 0.0805276C33.0821 0.0280372 33.1754 0 33.2708 0C33.3987 0 33.5213 0.0502462 33.6118 0.139833C33.7022 0.229419 33.7531 0.351116 33.7531 0.477811Z" fill="url(#paint2_linear_3802_57)"/>
<path d="M44.0218 0.477811C44.0218 0.572291 43.9935 0.664637 43.9405 0.743195C43.8875 0.821752 43.8122 0.88297 43.724 0.919126C43.6359 0.955282 43.5389 0.964731 43.4453 0.946299C43.3518 0.927867 43.2659 0.882398 43.1984 0.81559C43.131 0.748783 43.085 0.663499 43.0664 0.570834C43.0478 0.478169 43.0574 0.382226 43.0939 0.294937C43.1304 0.207649 43.1922 0.133018 43.2715 0.0805276C43.3508 0.0280372 43.4441 0 43.5395 0C43.6674 0 43.79 0.0502462 43.8805 0.139833C43.9709 0.229419 44.0218 0.351116 44.0218 0.477811Z" fill="url(#paint3_linear_3802_57)"/>
<path d="M35.2125 5.69133C35.2124 5.8666 35.1597 6.03777 35.0613 6.18342C34.9629 6.32908 34.8231 6.44254 34.6596 6.5095C34.496 6.57646 34.3161 6.59397 34.1426 6.55968C33.969 6.52539 33.8097 6.4409 33.6846 6.31691C33.5595 6.19292 33.4744 6.03501 33.4399 5.8631C33.4055 5.69119 33.4232 5.51289 33.491 5.35097C33.5588 5.18906 33.6735 5.05085 33.8206 4.95349C33.9677 4.85614 34.1407 4.80414 34.3177 4.80414C34.4353 4.80414 34.5517 4.82698 34.6603 4.87158C34.7689 4.91617 34.8676 4.98158 34.9507 5.06397C35.0338 5.14636 35.0997 5.24414 35.1447 5.35177C35.1896 5.4594 35.2126 5.57487 35.2125 5.69133Z" fill="url(#paint4_linear_3802_57)"/>
<path d="M39.2116 18.794C39.2116 19.3196 39.0542 19.8335 38.7594 20.2705C38.4646 20.7075 38.0456 21.0482 37.5554 21.2493C37.0651 21.4504 36.5257 21.503 36.0052 21.4004C35.4848 21.2979 35.0068 21.0448 34.6315 20.6731C34.2563 20.3015 34.0008 19.828 33.8973 19.3125C33.7937 18.797 33.8469 18.2627 34.05 17.7771C34.253 17.2915 34.5969 16.8765 35.0381 16.5845C35.4793 16.2925 35.998 16.1366 36.5286 16.1366C37.2402 16.1366 37.9227 16.4167 38.4258 16.9151C38.929 17.4135 39.2116 18.0892 39.2116 18.794Z" fill="url(#paint5_linear_3802_57)"/>
<path d="M26.2205 18.794C26.2205 19.3196 26.0631 19.8335 25.7683 20.2705C25.4735 20.7075 25.0545 21.0482 24.5642 21.2493C24.074 21.4504 23.5345 21.503 23.0141 21.4004C22.4937 21.2979 22.0156 21.0448 21.6404 20.6731C21.2652 20.3015 21.0096 19.828 20.9061 19.3125C20.8026 18.797 20.8557 18.2627 21.0588 17.7771C21.2618 17.2915 21.6057 16.8765 22.0469 16.5845C22.4881 16.2925 23.0069 16.1366 23.5375 16.1366C24.2491 16.1366 24.9315 16.4167 25.4346 16.9151C25.9378 17.4135 26.2205 18.0892 26.2205 18.794Z" fill="url(#paint6_linear_3802_57)"/>
<path d="M20.7227 27.7544C20.7227 28.28 20.5653 28.7939 20.2705 29.2309C19.9757 29.6679 19.5567 30.0084 19.0664 30.2095C18.5762 30.4107 18.0367 30.4634 17.5163 30.3609C16.9959 30.2583 16.5178 30.0052 16.1426 29.6335C15.7674 29.2619 15.5118 28.7884 15.4083 28.2729C15.3048 27.7574 15.3579 27.2231 15.561 26.7375C15.7641 26.2519 16.1079 25.8369 16.5491 25.5449C16.9904 25.2529 17.5091 25.097 18.0397 25.097C18.7513 25.097 19.4337 25.377 19.9368 25.8753C20.44 26.3737 20.7227 27.0496 20.7227 27.7544Z" fill="url(#paint7_linear_3802_57)"/>
<path d="M13.5032 23.6367C13.5032 24.281 13.3103 24.911 12.9489 25.4468C12.5875 25.9825 12.0738 26.4 11.4728 26.6465C10.8718 26.8931 10.2105 26.9577 9.57245 26.832C8.93443 26.7063 8.34836 26.396 7.88838 25.9404C7.42839 25.4848 7.11514 24.9043 6.98823 24.2724C6.86132 23.6404 6.92647 22.9854 7.17542 22.3901C7.42436 21.7948 7.84591 21.2859 8.3868 20.9279C8.92769 20.5699 9.5636 20.3789 10.2141 20.3789C10.6461 20.3788 11.0738 20.4631 11.4729 20.6268C11.872 20.7905 12.2347 21.0304 12.5401 21.3329C12.8455 21.6354 13.0878 21.9946 13.2531 22.3899C13.4183 22.7852 13.5033 23.2088 13.5032 23.6367Z" fill="url(#paint8_linear_3802_57)"/>
<path d="M19.9864 20.3751C19.9864 20.7561 19.8724 21.1284 19.6587 21.4452C19.445 21.7619 19.1413 22.0089 18.786 22.1547C18.4307 22.3005 18.0398 22.3388 17.6625 22.2646C17.2853 22.1903 16.9388 22.0069 16.6668 21.7376C16.3948 21.4682 16.2095 21.1252 16.1344 20.7516C16.0592 20.378 16.0976 19.9907 16.2447 19.6387C16.3918 19.2867 16.6409 18.9859 16.9606 18.7741C17.2803 18.5623 17.6562 18.4492 18.0408 18.449C18.5567 18.449 19.0514 18.6519 19.4163 19.0131C19.7811 19.3743 19.9862 19.8642 19.9864 20.3751Z" fill="url(#paint9_linear_3802_57)"/>
<path d="M36.0378 13.9073C36.0378 14.2074 35.9479 14.5008 35.7796 14.7504C35.6112 15 35.3719 15.1945 35.0919 15.3093C34.812 15.4242 34.5039 15.4542 34.2067 15.3956C33.9095 15.3371 33.6365 15.1925 33.4222 14.9803C33.2079 14.7681 33.062 14.4978 33.0029 14.2034C32.9438 13.909 32.9741 13.6038 33.0901 13.3265C33.206 13.0492 33.4024 12.8121 33.6544 12.6454C33.9063 12.4786 34.2026 12.3897 34.5056 12.3897C34.9119 12.3897 35.3017 12.5496 35.589 12.8342C35.8764 13.1188 36.0378 13.5048 36.0378 13.9073Z" fill="url(#paint10_linear_3802_57)"/>
<path d="M29.8522 18.4498C29.8522 18.6878 29.781 18.9203 29.6475 19.1182C29.514 19.3161 29.3243 19.4704 29.1024 19.5615C28.8804 19.6526 28.6362 19.6764 28.4005 19.6299C28.1649 19.5835 27.9484 19.469 27.7785 19.3007C27.6087 19.1324 27.493 18.918 27.4461 18.6846C27.3992 18.4512 27.4233 18.2093 27.5152 17.9894C27.6072 17.7696 27.7629 17.5815 27.9626 17.4493C28.1624 17.3171 28.3972 17.2466 28.6375 17.2466C28.797 17.2465 28.9551 17.2776 29.1025 17.3381C29.2499 17.3985 29.3839 17.4871 29.4967 17.5989C29.6095 17.7106 29.699 17.8432 29.76 17.9892C29.821 18.1353 29.8524 18.2918 29.8522 18.4498Z" fill="url(#paint11_linear_3802_57)"/>
<path d="M24.751 23.6377C24.751 23.8756 24.6798 24.1082 24.5463 24.3061C24.4128 24.5039 24.2231 24.6581 24.0011 24.7492C23.7792 24.8402 23.5349 24.864 23.2993 24.8176C23.0636 24.7712 22.8472 24.6566 22.6773 24.4884C22.5074 24.3201 22.3917 24.1057 22.3448 23.8723C22.298 23.6389 22.322 23.397 22.414 23.1771C22.5059 22.9572 22.6616 22.7694 22.8614 22.6372C23.0611 22.505 23.296 22.4343 23.5362 22.4343C23.8584 22.4343 24.1674 22.5611 24.3952 22.7868C24.623 23.0124 24.751 23.3185 24.751 23.6377Z" fill="url(#paint12_linear_3802_57)"/>
<path d="M32.8073 22.752C32.8073 22.9273 32.7548 23.0987 32.6565 23.2445C32.5581 23.3902 32.4184 23.5039 32.2549 23.571C32.0914 23.638 31.9114 23.6555 31.7378 23.6213C31.5642 23.5871 31.4048 23.5027 31.2797 23.3788C31.1545 23.2548 31.0693 23.0969 31.0348 22.925C31.0002 22.753 31.0179 22.5748 31.0857 22.4128C31.1534 22.2509 31.2681 22.1123 31.4153 22.015C31.5624 21.9176 31.7354 21.8656 31.9124 21.8656C32.1497 21.8656 32.3774 21.959 32.5452 22.1252C32.713 22.2915 32.8073 22.5169 32.8073 22.752Z" fill="url(#paint13_linear_3802_57)"/>
<path d="M42.4547 13.8048C42.4547 13.9801 42.4023 14.1513 42.304 14.2971C42.2056 14.4428 42.0659 14.5564 41.9024 14.6235C41.7388 14.6906 41.5589 14.7083 41.3853 14.6741C41.2117 14.6399 41.0523 14.5555 40.9271 14.4315C40.802 14.3076 40.7168 14.1495 40.6822 13.9775C40.6477 13.8056 40.6654 13.6276 40.7332 13.4656C40.8009 13.3036 40.9156 13.1651 41.0627 13.0677C41.2099 12.9703 41.3829 12.9184 41.5599 12.9184C41.6774 12.9184 41.7938 12.9413 41.9024 12.9858C42.0109 13.0303 42.1096 13.0957 42.1927 13.178C42.2758 13.2603 42.3416 13.3581 42.3866 13.4656C42.4316 13.5731 42.4547 13.6884 42.4547 13.8048Z" fill="url(#paint14_linear_3802_57)"/>
<path d="M21.5474 10.9241C21.5474 11.0994 21.4949 11.2707 21.3966 11.4164C21.2982 11.5622 21.1585 11.6758 20.995 11.7429C20.8315 11.81 20.6515 11.8277 20.4779 11.7935C20.3043 11.7593 20.1449 11.6749 20.0198 11.5509C19.8946 11.4269 19.8094 11.269 19.7749 11.0971C19.7403 10.9252 19.758 10.7469 19.8258 10.585C19.8935 10.423 20.0082 10.2845 20.1553 10.1871C20.3025 10.0897 20.4755 10.0377 20.6525 10.0377C20.8899 10.0377 21.1175 10.1311 21.2853 10.2974C21.4531 10.4636 21.5474 10.6891 21.5474 10.9241Z" fill="url(#paint15_linear_3802_57)"/>
<path d="M41.5693 20.3793C41.5693 20.5546 41.5169 20.726 41.4185 20.8718C41.3202 21.0175 41.1805 21.1312 41.0169 21.1983C40.8534 21.2653 40.6735 21.2828 40.4999 21.2486C40.3263 21.2144 40.1669 21.13 40.0417 21.0061C39.9166 20.8821 39.8314 20.7242 39.7968 20.5522C39.7623 20.3803 39.78 20.2021 39.8477 20.0401C39.9155 19.8782 40.0301 19.7398 40.1773 19.6424C40.3245 19.5451 40.4975 19.4931 40.6745 19.4931C40.9118 19.4931 41.1394 19.5865 41.3073 19.7527C41.4751 19.9189 41.5693 20.1442 41.5693 20.3793Z" fill="url(#paint16_linear_3802_57)"/>
<path d="M16.2611 23.6381C16.2609 23.8134 16.2083 23.9845 16.1099 24.1302C16.0114 24.2758 15.8716 24.3893 15.7081 24.4563C15.5446 24.5232 15.3647 24.5407 15.1911 24.5064C15.0176 24.4721 14.8582 24.3877 14.7332 24.2637C14.6081 24.1397 14.5229 23.9818 14.4885 23.8099C14.454 23.6379 14.4718 23.4598 14.5396 23.2979C14.6073 23.136 14.722 22.9976 14.8691 22.9002C15.0163 22.8029 15.1893 22.7509 15.3662 22.7509C15.4838 22.7509 15.6002 22.7737 15.7089 22.8183C15.8175 22.8629 15.9162 22.9283 15.9993 23.0107C16.0824 23.0931 16.1483 23.1909 16.1932 23.2985C16.2381 23.4062 16.2612 23.5216 16.2611 23.6381Z" fill="url(#paint17_linear_3802_57)"/>
<path d="M28.6385 21.4513C28.6385 21.5458 28.6102 21.6381 28.5571 21.7167C28.5041 21.7952 28.4287 21.8565 28.3405 21.8926C28.2524 21.9287 28.1554 21.9383 28.0618 21.9198C27.9682 21.9013 27.8823 21.8556 27.8149 21.7887C27.7474 21.7218 27.7016 21.6366 27.683 21.5439C27.6645 21.4512 27.6742 21.3551 27.7108 21.2678C27.7475 21.1805 27.8094 21.106 27.8888 21.0536C27.9682 21.0012 28.0616 20.9733 28.157 20.9735C28.2848 20.9737 28.4072 21.0241 28.4975 21.1137C28.5878 21.2033 28.6385 21.3247 28.6385 21.4513Z" fill="url(#paint18_linear_3802_57)"/>
<path d="M22.7971 13.9053C22.7971 13.9998 22.7688 14.0921 22.7158 14.1707C22.6627 14.2492 22.5873 14.3105 22.4992 14.3466C22.411 14.3827 22.314 14.3921 22.2204 14.3736C22.1268 14.3551 22.0409 14.3095 21.9735 14.2426C21.9061 14.1758 21.8602 14.0906 21.8417 13.9979C21.8232 13.9052 21.8328 13.8091 21.8695 13.7218C21.9061 13.6345 21.968 13.56 22.0474 13.5076C22.1269 13.4552 22.2202 13.4273 22.3156 13.4275C22.4434 13.4277 22.5658 13.4781 22.6561 13.5677C22.7464 13.6572 22.7971 13.7787 22.7971 13.9053Z" fill="url(#paint19_linear_3802_57)"/>
<path d="M13.6254 18.6374C13.6252 18.7319 13.5967 18.8241 13.5436 18.9026C13.4905 18.9811 13.415 19.0421 13.3269 19.0781C13.2387 19.1141 13.1417 19.1235 13.0482 19.1049C12.9546 19.0863 12.8688 19.0407 12.8015 18.9738C12.7341 18.9069 12.6883 18.8217 12.6699 18.729C12.6514 18.6363 12.6611 18.5402 12.6978 18.4529C12.7345 18.3657 12.7964 18.2913 12.8758 18.2389C12.9552 18.1866 13.0485 18.1586 13.1439 18.1588C13.2072 18.1589 13.2699 18.1714 13.3284 18.1955C13.3869 18.2196 13.4399 18.255 13.4847 18.2994C13.5294 18.3439 13.5648 18.3965 13.5889 18.4545C13.6131 18.5125 13.6255 18.5747 13.6254 18.6374Z" fill="url(#paint20_linear_3802_57)"/>
<path d="M28.6427 11.9768C28.6427 12.3577 28.5287 12.7301 28.315 13.0468C28.1013 13.3636 27.7976 13.6105 27.4422 13.7563C27.0869 13.9021 26.6958 13.9403 26.3186 13.866C25.9414 13.7917 25.5948 13.6082 25.3229 13.3388C25.0509 13.0694 24.8657 12.7261 24.7906 12.3524C24.7156 11.9788 24.7541 11.5915 24.9013 11.2395C25.0485 10.8875 25.2977 10.5868 25.6176 10.3751C25.9374 10.1635 26.3134 10.0504 26.698 10.0504C27.2138 10.0504 27.7084 10.2533 28.0731 10.6145C28.4378 10.9758 28.6427 11.4659 28.6427 11.9768Z" fill="url(#paint21_linear_3802_57)"/>
<path d="M32.0726 9.24507C32.0726 9.48304 32.0013 9.71562 31.8679 9.91349C31.7344 10.1114 31.5447 10.2655 31.3227 10.3566C31.1007 10.4477 30.8565 10.4716 30.6209 10.4252C30.3852 10.3788 30.1688 10.264 29.9989 10.0958C29.829 9.9275 29.7133 9.71311 29.6664 9.47971C29.6195 9.24631 29.6436 9.00457 29.7356 8.78471C29.8275 8.56486 29.9832 8.37683 30.183 8.24462C30.3827 8.11241 30.6176 8.04191 30.8578 8.04191C31.18 8.04191 31.489 8.16873 31.7168 8.39437C31.9446 8.62001 32.0726 8.92596 32.0726 9.24507Z" fill="url(#paint22_linear_3802_57)"/>
<path d="M35.471 10.4423C35.471 10.5367 35.4427 10.6291 35.3897 10.7076C35.3367 10.7862 35.2614 10.8474 35.1733 10.8836C35.0852 10.9197 34.9882 10.9292 34.8946 10.9107C34.8011 10.8923 34.7151 10.8468 34.6477 10.78C34.5802 10.7132 34.5343 10.6279 34.5157 10.5353C34.4971 10.4426 34.5067 10.3467 34.5432 10.2594C34.5797 10.1721 34.6415 10.0975 34.7208 10.045C34.8001 9.99249 34.8933 9.96445 34.9887 9.96445C35.1166 9.96445 35.2393 10.0149 35.3297 10.1045C35.4202 10.1941 35.471 10.3156 35.471 10.4423Z" fill="url(#paint23_linear_3802_57)"/>
<path d="M45.2508 8.34804C45.2508 8.44255 45.2225 8.53505 45.1695 8.61362C45.1164 8.6922 45.0411 8.75342 44.9529 8.78955C44.8647 8.82568 44.7677 8.83502 44.6741 8.81653C44.5805 8.79803 44.4946 8.75251 44.4272 8.68562C44.3598 8.61873 44.3139 8.53358 44.2954 8.44086C44.2769 8.34814 44.2865 8.25204 44.3232 8.16477C44.3598 8.07749 44.4217 8.00295 44.5011 7.95056C44.5806 7.89816 44.6739 7.87026 44.7693 7.87043C44.8326 7.87043 44.8953 7.88271 44.9538 7.90672C45.0122 7.93074 45.0654 7.96589 45.1101 8.01026C45.1548 8.05463 45.1902 8.10741 45.2144 8.16536C45.2385 8.22332 45.2509 8.28534 45.2508 8.34804Z" fill="url(#paint24_linear_3802_57)"/>
<path d="M39.1847 14.2145C39.1849 14.309 39.1568 14.4016 39.1039 14.4803C39.051 14.559 38.9757 14.6201 38.8876 14.6564C38.7995 14.6927 38.7025 14.7023 38.6089 14.684C38.5152 14.6657 38.4292 14.6203 38.3617 14.5535C38.2942 14.4867 38.2482 14.4016 38.2295 14.3089C38.2108 14.2162 38.2203 14.1202 38.2568 14.0328C38.2933 13.9455 38.3551 13.8708 38.4344 13.8182C38.5138 13.7657 38.607 13.7377 38.7025 13.7377C38.8302 13.7377 38.9528 13.7879 39.0432 13.8773C39.1336 13.9667 39.1845 14.088 39.1847 14.2145Z" fill="url(#paint25_linear_3802_57)"/>
<path d="M20.6561 24.048C20.6561 24.1425 20.6278 24.2349 20.5748 24.3134C20.5218 24.392 20.4465 24.4532 20.3584 24.4894C20.2702 24.5255 20.1733 24.535 20.0797 24.5165C19.9862 24.4981 19.9002 24.4526 19.8328 24.3858C19.7653 24.319 19.7194 24.2339 19.7008 24.1413C19.6822 24.0486 19.6917 23.9525 19.7282 23.8652C19.7647 23.7779 19.8265 23.7033 19.9059 23.6508C19.9852 23.5983 20.0784 23.5702 20.1738 23.5702C20.3017 23.5702 20.4244 23.6207 20.5148 23.7103C20.6053 23.7999 20.6561 23.9214 20.6561 24.048Z" fill="url(#paint26_linear_3802_57)"/>
<path d="M37.7443 23.5722C37.7443 23.6667 37.716 23.759 37.663 23.8376C37.61 23.9161 37.5347 23.9773 37.4465 24.0135C37.3584 24.0496 37.2614 24.0591 37.1679 24.0407C37.0743 24.0222 36.9884 23.9768 36.9209 23.91C36.8535 23.8431 36.8075 23.7579 36.7889 23.6652C36.7703 23.5725 36.7799 23.4766 36.8164 23.3893C36.8529 23.302 36.9147 23.2274 36.994 23.1749C37.0733 23.1224 37.1666 23.0944 37.262 23.0944C37.3899 23.0944 37.5125 23.1446 37.603 23.2342C37.6934 23.3238 37.7443 23.4455 37.7443 23.5722Z" fill="url(#paint27_linear_3802_57)"/>
<path d="M23.2861 27.2729C23.2861 27.3674 23.2578 27.4597 23.2048 27.5383C23.1518 27.6169 23.0765 27.6781 22.9884 27.7142C22.9002 27.7504 22.8032 27.7598 22.7097 27.7414C22.6161 27.723 22.5302 27.6775 22.4628 27.6107C22.3953 27.5439 22.3494 27.4588 22.3308 27.3661C22.3122 27.2735 22.3217 27.1773 22.3582 27.09C22.3947 27.0028 22.4565 26.9283 22.5359 26.8758C22.6152 26.8233 22.7084 26.7953 22.8038 26.7953C22.8671 26.7953 22.9299 26.8076 22.9884 26.8316C23.0469 26.8556 23.1 26.8908 23.1448 26.9351C23.1896 26.9795 23.2251 27.0321 23.2494 27.09C23.2736 27.148 23.2861 27.2102 23.2861 27.2729Z" fill="url(#paint28_linear_3802_57)"/>
<path d="M42.5283 10.925C42.5283 11.0195 42.4999 11.1118 42.4469 11.1904C42.3939 11.2689 42.3185 11.3302 42.2303 11.3663C42.1422 11.4024 42.0452 11.412 41.9516 11.3935C41.858 11.375 41.7721 11.3292 41.7047 11.2624C41.6373 11.1955 41.5914 11.1103 41.5729 11.0176C41.5544 10.9249 41.564 10.8288 41.6007 10.7415C41.6373 10.6542 41.6992 10.5797 41.7786 10.5273C41.8581 10.4749 41.9514 10.447 42.0468 10.4472C42.1746 10.4474 42.297 10.4978 42.3873 10.5874C42.4776 10.677 42.5283 10.7984 42.5283 10.925Z" fill="url(#paint29_linear_3802_57)"/>
<path d="M30.8191 14.6914C30.8191 14.7859 30.7908 14.8782 30.7378 14.9568C30.6848 15.0353 30.6095 15.0965 30.5214 15.1327C30.4332 15.1689 30.3363 15.1783 30.2427 15.1599C30.1491 15.1414 30.0632 15.096 29.9958 15.0292C29.9283 14.9624 29.8824 14.8773 29.8638 14.7846C29.8452 14.6919 29.8547 14.5958 29.8912 14.5085C29.9277 14.4212 29.9895 14.3466 30.0689 14.2941C30.1482 14.2416 30.2414 14.2136 30.3368 14.2136C30.4001 14.2136 30.4629 14.2261 30.5214 14.2501C30.5799 14.2741 30.6331 14.3092 30.6778 14.3536C30.7226 14.398 30.7581 14.4505 30.7824 14.5085C30.8066 14.5665 30.8191 14.6286 30.8191 14.6914Z" fill="url(#paint30_linear_3802_57)"/>
<path d="M44.9326 16.412C44.7999 16.3534 44.6597 16.3133 44.5159 16.2926C44.488 16.2853 44.4618 16.2763 44.4339 16.269L44.4388 16.2845C44.3861 16.2764 44.333 16.2712 44.2797 16.269C43.8603 16.269 43.458 16.434 43.1615 16.7278C42.8649 17.0215 42.6983 17.4199 42.6983 17.8353C42.6983 18.2507 42.8649 18.6491 43.1615 18.9429C43.458 19.2366 43.8603 19.4016 44.2797 19.4016C44.4764 19.4009 44.6712 19.3634 44.8538 19.2912C44.827 19.7188 44.7648 20.1435 44.6676 20.561C44.554 20.5185 44.433 20.499 44.3117 20.5036C44.1903 20.5083 44.0712 20.537 43.9612 20.5879C43.8512 20.6389 43.7526 20.7111 43.6713 20.8004C43.5899 20.8896 43.5275 20.9942 43.4875 21.1078C43.4476 21.2214 43.4311 21.3418 43.4388 21.4618C43.4466 21.5819 43.4786 21.699 43.5328 21.8066C43.5871 21.9142 43.6625 22.01 43.7547 22.0882C43.8469 22.1665 43.954 22.2255 44.0697 22.2622C43.9549 22.5037 43.8291 22.7421 43.6924 22.9772C43.6395 22.9363 43.5785 22.907 43.5134 22.8909C43.4483 22.8748 43.3805 22.8723 43.3144 22.8838C43.2483 22.8952 43.1853 22.9202 43.1296 22.9572C43.0738 22.9941 43.0265 23.0422 42.9906 23.0984C42.9548 23.1546 42.9312 23.2177 42.9214 23.2834C42.9117 23.3492 42.9159 23.4162 42.9339 23.4802C42.9518 23.5442 42.9831 23.6038 43.0258 23.6551C43.0684 23.7065 43.1214 23.7485 43.1814 23.7783H43.1896C43.2293 23.7975 43.2715 23.8108 43.3151 23.818C49.0457 25.5329 54.0603 29.0423 57.6065 33.8195C61.1527 38.5966 63.0392 44.3839 62.983 50.3132C62.9268 56.2424 60.9309 61.9937 57.2949 66.7041C53.6588 71.4145 48.5785 74.8299 42.8165 76.438C37.0544 78.0461 30.9212 77.7601 25.3372 75.6228C19.7531 73.4856 15.0194 69.6124 11.8463 64.5844C8.67314 59.5564 7.2317 53.6449 7.73825 47.7367C8.24481 41.8285 10.672 36.2422 14.6557 31.8162C14.7577 31.734 14.8453 31.6358 14.9149 31.5254C14.9338 31.5051 14.9502 31.4832 14.9699 31.4629H14.9502C15.0375 31.3021 15.0865 31.1236 15.0936 30.9411C15.1008 30.7586 15.0658 30.577 14.9914 30.4099C14.917 30.2429 14.805 30.0947 14.6641 29.9769C14.5232 29.8592 14.3571 29.7748 14.1783 29.7302C13.9995 29.6856 13.8128 29.6821 13.6324 29.7197C13.452 29.7573 13.2826 29.8352 13.1372 29.9474C12.9918 30.0596 12.8741 30.2032 12.7931 30.3673C12.7122 30.5313 12.6701 30.7115 12.67 30.8941C12.67 30.9282 12.6782 30.9608 12.6806 30.9933C12.451 30.9388 12.2238 30.8812 11.9982 30.8219C11.9846 30.6432 11.9163 30.473 11.8024 30.3338C11.6886 30.1946 11.5345 30.093 11.3609 30.0428C11.1873 29.9926 11.0023 29.9959 10.8307 30.0525C10.6591 30.1091 10.509 30.2162 10.4004 30.3596C9.99305 30.2306 9.59306 30.0952 9.20045 29.9533C9.20045 29.9192 9.21111 29.8859 9.21111 29.8518C9.21237 29.6046 9.13641 29.3631 8.99364 29.1604C8.85088 28.9576 8.6483 28.8035 8.41367 28.7192C8.17904 28.635 7.92385 28.6247 7.68306 28.6897C7.44227 28.7547 7.22768 28.8919 7.0687 29.0824L7.05229 29.0753C2.53468 35.0453 0.0638925 42.2901 0.00122231 49.7506C-0.0614479 57.2112 2.28729 64.4958 6.70398 70.5395C11.1207 76.5831 17.3736 81.0687 24.5485 83.3402C31.7233 85.6117 39.4437 85.5501 46.5806 83.1643C53.7175 80.7784 59.8966 76.1935 64.2143 70.0801C68.532 63.9667 70.7618 56.6455 70.5777 49.187C70.3935 41.7284 67.8051 34.5239 63.1909 28.6268C58.5766 22.7298 52.1787 18.4495 44.9326 16.412Z" fill="url(#paint31_linear_3802_57)"/>
<path d="M26.5337 61.9882C26.5337 61.0783 26.7461 56.6702 26.7461 51.9477V42.8867C25.7184 44.0761 22.9887 46.6654 21.9609 47.7142L20.3656 45.8252C21.039 45.2305 28.9443 37.9538 29.9721 36.7993H30.0787C30.0787 37.9538 29.7949 42.6064 29.7949 47.329V52.717C29.7949 57.754 29.7596 60.9028 29.8654 61.9874L26.5337 61.9882Z" fill="url(#paint32_linear_3802_57)"/>
<path d="M43.767 39.0083C40.7909 40.9201 38.3617 43.5584 36.713 46.6693C42.6334 46.4597 47.1348 49.6078 47.1348 54.016C47.1186 56.256 46.2205 58.4014 44.6317 59.9956C43.0428 61.5898 40.8886 62.5071 38.6274 62.5521C37.7045 62.5981 36.7821 62.4506 35.9208 62.1191C35.0594 61.7876 34.2784 61.2796 33.629 60.6283C32.2108 59.1595 31.4669 57.2348 31.4669 54.4361C31.4669 47.5094 37.1035 39.9531 41.9247 36.5946L43.767 39.0083ZM38.8751 59.9986C41.8173 59.9986 43.803 57.5151 43.803 54.7179C43.803 50.8345 39.7618 48.8061 35.614 49.0855C34.9212 50.7104 34.5945 52.4652 34.6567 54.228C34.6567 57.7945 36.4292 59.9986 38.8751 59.9986Z" fill="url(#paint33_linear_3802_57)"/>
<defs>
<linearGradient id="paint0_linear_3802_57" x1="43.0517" y1="6.61076" x2="43.0517" y2="3.21823" gradientUnits="userSpaceOnUse">
<stop stop-color="#087BBA"/>
<stop offset="1" stop-color="#089FE8"/>
</linearGradient>
<linearGradient id="paint1_linear_3802_57" x1="38.7112" y1="9.96499" x2="38.7112" y2="6.11254" gradientUnits="userSpaceOnUse">
<stop stop-color="#087BBA"/>
<stop offset="1" stop-color="#089FE8"/>
</linearGradient>
<linearGradient id="paint2_linear_3802_57" x1="33.2708" y1="0.955481" x2="33.2708" y2="0" gradientUnits="userSpaceOnUse">
<stop stop-color="#087BBA"/>
<stop offset="1" stop-color="#089FE8"/>
</linearGradient>
<linearGradient id="paint3_linear_3802_57" x1="43.5395" y1="0.955481" x2="43.5395" y2="0" gradientUnits="userSpaceOnUse">
<stop stop-color="#087BBA"/>
<stop offset="1" stop-color="#089FE8"/>
</linearGradient>
<linearGradient id="paint4_linear_3802_57" x1="34.3177" y1="6.57679" x2="34.3177" y2="4.80414" gradientUnits="userSpaceOnUse">
<stop stop-color="#087BBA"/>
<stop offset="1" stop-color="#089FE8"/>
</linearGradient>
<linearGradient id="paint5_linear_3802_57" x1="36.5287" y1="21.4515" x2="36.5287" y2="16.1366" gradientUnits="userSpaceOnUse">
<stop stop-color="#087BBA"/>
<stop offset="1" stop-color="#089FE8"/>
</linearGradient>
<linearGradient id="paint6_linear_3802_57" x1="23.5375" y1="21.4515" x2="23.5375" y2="16.1366" gradientUnits="userSpaceOnUse">
<stop stop-color="#087BBA"/>
<stop offset="1" stop-color="#089FE8"/>
</linearGradient>
<linearGradient id="paint7_linear_3802_57" x1="18.0397" y1="30.4119" x2="18.0397" y2="25.097" gradientUnits="userSpaceOnUse">
<stop stop-color="#087BBA"/>
<stop offset="1" stop-color="#089FE8"/>
</linearGradient>
<linearGradient id="paint8_linear_3802_57" x1="10.2141" y1="26.8946" x2="10.2141" y2="20.3789" gradientUnits="userSpaceOnUse">
<stop stop-color="#087BBA"/>
<stop offset="1" stop-color="#089FE8"/>
</linearGradient>
<linearGradient id="paint9_linear_3802_57" x1="18.0416" y1="22.3015" x2="18.0416" y2="18.449" gradientUnits="userSpaceOnUse">
<stop stop-color="#087BBA"/>
<stop offset="1" stop-color="#089FE8"/>
</linearGradient>
<linearGradient id="paint10_linear_3802_57" x1="34.5056" y1="15.4248" x2="34.5056" y2="12.3897" gradientUnits="userSpaceOnUse">
<stop stop-color="#087BBA"/>
<stop offset="1" stop-color="#089FE8"/>
</linearGradient>
<linearGradient id="paint11_linear_3802_57" x1="28.6375" y1="19.6531" x2="28.6375" y2="17.2466" gradientUnits="userSpaceOnUse">
<stop stop-color="#087BBA"/>
<stop offset="1" stop-color="#089FE8"/>
</linearGradient>
<linearGradient id="paint12_linear_3802_57" x1="23.5363" y1="24.8407" x2="23.5363" y2="22.4343" gradientUnits="userSpaceOnUse">
<stop stop-color="#087BBA"/>
<stop offset="1" stop-color="#089FE8"/>
</linearGradient>
<linearGradient id="paint13_linear_3802_57" x1="31.9124" y1="23.6384" x2="31.9124" y2="21.8656" gradientUnits="userSpaceOnUse">
<stop stop-color="#087BBA"/>
<stop offset="1" stop-color="#089FE8"/>
</linearGradient>
<linearGradient id="paint14_linear_3802_57" x1="41.5599" y1="14.6911" x2="41.5599" y2="12.9184" gradientUnits="userSpaceOnUse">
<stop stop-color="#087BBA"/>
<stop offset="1" stop-color="#089FE8"/>
</linearGradient>
<linearGradient id="paint15_linear_3802_57" x1="20.6525" y1="11.8105" x2="20.6525" y2="10.0377" gradientUnits="userSpaceOnUse">
<stop stop-color="#087BBA"/>
<stop offset="1" stop-color="#089FE8"/>
</linearGradient>
<linearGradient id="paint16_linear_3802_57" x1="40.6745" y1="21.2657" x2="40.6745" y2="19.4931" gradientUnits="userSpaceOnUse">
<stop stop-color="#087BBA"/>
<stop offset="1" stop-color="#089FE8"/>
</linearGradient>
<linearGradient id="paint17_linear_3802_57" x1="15.3662" y1="24.5235" x2="15.3662" y2="22.7509" gradientUnits="userSpaceOnUse">
<stop stop-color="#087BBA"/>
<stop offset="1" stop-color="#089FE8"/>
</linearGradient>
<linearGradient id="paint18_linear_3802_57" x1="28.1562" y1="21.929" x2="28.1562" y2="20.9735" gradientUnits="userSpaceOnUse">
<stop stop-color="#087BBA"/>
<stop offset="1" stop-color="#089FE8"/>
</linearGradient>
<linearGradient id="paint19_linear_3802_57" x1="22.3148" y1="14.3828" x2="22.3148" y2="13.4275" gradientUnits="userSpaceOnUse">
<stop stop-color="#087BBA"/>
<stop offset="1" stop-color="#089FE8"/>
</linearGradient>
<linearGradient id="paint20_linear_3802_57" x1="13.1431" y1="19.1142" x2="13.1431" y2="18.1588" gradientUnits="userSpaceOnUse">
<stop stop-color="#087BBA"/>
<stop offset="1" stop-color="#089FE8"/>
</linearGradient>
<linearGradient id="paint21_linear_3802_57" x1="26.698" y1="13.903" x2="26.698" y2="10.0504" gradientUnits="userSpaceOnUse">
<stop stop-color="#087BBA"/>
<stop offset="1" stop-color="#089FE8"/>
</linearGradient>
<linearGradient id="paint22_linear_3802_57" x1="30.8578" y1="10.4483" x2="30.8578" y2="8.04191" gradientUnits="userSpaceOnUse">
<stop stop-color="#087BBA"/>
<stop offset="1" stop-color="#089FE8"/>
</linearGradient>
<linearGradient id="paint23_linear_3802_57" x1="34.9887" y1="10.9199" x2="34.9887" y2="9.96445" gradientUnits="userSpaceOnUse">
<stop stop-color="#087BBA"/>
<stop offset="1" stop-color="#089FE8"/>
</linearGradient>
<linearGradient id="paint24_linear_3802_57" x1="44.7685" y1="8.82578" x2="44.7685" y2="7.87042" gradientUnits="userSpaceOnUse">
<stop stop-color="#087BBA"/>
<stop offset="1" stop-color="#089FE8"/>
</linearGradient>
<linearGradient id="paint25_linear_3802_57" x1="38.7024" y1="14.6931" x2="38.7024" y2="13.7377" gradientUnits="userSpaceOnUse">
<stop stop-color="#087BBA"/>
<stop offset="1" stop-color="#089FE8"/>
</linearGradient>
<linearGradient id="paint26_linear_3802_57" x1="20.1738" y1="24.5257" x2="20.1738" y2="23.5702" gradientUnits="userSpaceOnUse">
<stop stop-color="#087BBA"/>
<stop offset="1" stop-color="#089FE8"/>
</linearGradient>
<linearGradient id="paint27_linear_3802_57" x1="37.262" y1="24.0498" x2="37.262" y2="23.0944" gradientUnits="userSpaceOnUse">
<stop stop-color="#087BBA"/>
<stop offset="1" stop-color="#089FE8"/>
</linearGradient>
<linearGradient id="paint28_linear_3802_57" x1="22.8038" y1="27.7506" x2="22.8038" y2="26.7953" gradientUnits="userSpaceOnUse">
<stop stop-color="#087BBA"/>
<stop offset="1" stop-color="#089FE8"/>
</linearGradient>
<linearGradient id="paint29_linear_3802_57" x1="42.046" y1="11.4027" x2="42.046" y2="10.4472" gradientUnits="userSpaceOnUse">
<stop stop-color="#087BBA"/>
<stop offset="1" stop-color="#089FE8"/>
</linearGradient>
<linearGradient id="paint30_linear_3802_57" x1="30.3368" y1="15.1691" x2="30.3368" y2="14.2136" gradientUnits="userSpaceOnUse">
<stop stop-color="#087BBA"/>
<stop offset="1" stop-color="#089FE8"/>
</linearGradient>
<linearGradient id="paint31_linear_3802_57" x1="35.2941" y1="84.9999" x2="35.2941" y2="16.269" gradientUnits="userSpaceOnUse">
<stop stop-color="#087BBA"/>
<stop offset="1" stop-color="#089FE8"/>
</linearGradient>
<linearGradient id="paint32_linear_3802_57" x1="25.2221" y1="61.9882" x2="25.2221" y2="36.7993" gradientUnits="userSpaceOnUse">
<stop stop-color="#087BBA"/>
<stop offset="1" stop-color="#089FE8"/>
</linearGradient>
<linearGradient id="paint33_linear_3802_57" x1="39.3008" y1="62.5603" x2="39.3008" y2="36.5946" gradientUnits="userSpaceOnUse">
<stop stop-color="#087BBA"/>
<stop offset="1" stop-color="#089FE8"/>
</linearGradient>
</defs>
</svg>
